<?xml version="1.0" ?><svg xmlns="http://www.w3.org/2000/svg" xmlns:xlink="http://www.w3.org/1999/xlink" version="1.1" viewBox="0 0 512 512" style="enable-background:new 0 0 512 512;" xml:space="preserve"><g id="_x31_3_x2C__Books_x2C__subjects_x2C__book_stack_x2C__stack_x2C__study_x2C__education_x2C__learning_x2C__knowledge"><g><g><path style="fill:#283954;" d="M490.583,153.917c0-16.772-13.645-30.417-30.416-30.417h-6.24     c-4.536-4.695-12.71-15.245-12.854-30.418c-0.149-15.622,8.231-26.465,12.854-31.249h6.24c16.807,0,30.416-13.609,30.416-30.416     C490.583,14.645,476.938,1,460.167,1H143.708c-24.476,0-47.494,9.533-64.821,26.85c-38.613,38.639-35.179,102.229,7.736,136.483     h-34.79c-16.771,0-30.416,13.645-30.416,30.417c0,16.805,13.609,30.417,30.416,30.417h6.24     c4.623,4.784,13.002,15.627,12.854,31.249c-0.144,15.172-8.318,25.722-12.854,30.417h-6.24     c-16.771,0-30.416,13.645-30.416,30.417c0,16.805,13.609,30.417,30.416,30.417H86.57c-21.858,17.489-34.528,43.447-34.528,71.666     c0,50.545,41.121,91.667,91.666,91.667h316.459c16.805,0,30.416-13.609,30.416-30.417c0-16.771-13.645-30.416-30.416-30.416     h-6.24c-4.536-4.695-12.71-15.245-12.854-30.418c-0.149-15.622,8.231-26.465,12.854-31.249h6.24     c16.805,0,30.416-13.609,30.416-30.417c0-16.771-13.645-30.416-30.416-30.416h-34.79c46.049-36.756,46.159-106.443,0.053-143.334     h34.737C476.974,184.333,490.583,170.725,490.583,153.917z M296.833,184.333h71.459c39.531,0,71.666,31.99,71.666,71.667     c0,39.518-32.149,71.667-71.666,71.667h-20.417c-5.522,0-10,4.478-10,10s4.478,10,10,10c13.777,0,99.644,0,112.292,0     c5.743,0,10.416,4.673,10.416,10.416c0,5.75-4.663,10.417-10.416,10.417H347.875c-5.522,0-10,4.478-10,10s4.478,10,10,10h81.417     c-11.248,19.968-10.657,42.889-0.104,61.667H143.708c-17.028,0-30.833-13.802-30.833-30.834     c0-17.001,13.832-30.833,30.833-30.833h81.667c5.522,0,10-4.478,10-10s-4.478-10-10-10h-81.667     c-28.029,0-50.833,22.804-50.833,50.833c0,28.084,22.747,50.834,50.833,50.834h316.459c5.743,0,10.416,4.673,10.416,10.416     c0,5.75-4.663,10.417-10.416,10.417H143.708c-39.517,0-71.666-32.149-71.666-71.667c0-39.542,31.994-71.666,71.666-71.666h81.667     c5.522,0,10-4.478,10-10s-4.478-10-10-10c-17.382,0-156.127,0-173.542,0c-5.75,0-10.416-4.663-10.416-10.417     c0-5.744,4.673-10.417,10.416-10.417h173.634c5.522,0,10-4.478,10-10s-4.478-10-10-10H82.813     c10.533-18.742,11.162-41.665-0.104-61.666h91.625c5.522,0,10-4.478,10-10s-4.478-10-10-10h-122.5     c-5.75,0-10.416-4.663-10.416-10.417c0-5.744,4.673-10.417,10.416-10.417c10.274,0,105.77,0,122.5,0c5.522,0,10-4.478,10-10     s-4.478-10-10-10h-30.625c-39.517,0-71.666-32.149-71.666-71.666C72.042,53.135,104.031,21,143.708,21h316.459     c5.743,0,10.416,4.673,10.416,10.417c0,5.752-4.663,10.416-10.416,10.416H143.708c-28.029,0-50.833,22.804-50.833,50.834     c0,28.083,22.749,50.833,50.833,50.833h30.717c5.522,0,10-4.478,10-10s-4.478-10-10-10h-30.717     c-17.032,0-30.833-13.803-30.833-30.833c0-17.002,13.832-30.834,30.833-30.834h285.583     c-11.248,19.968-10.657,42.889-0.104,61.667H296.741c-5.522,0-10,4.478-10,10s4.478,10,10,10h163.426     c5.743,0,10.416,4.673,10.416,10.417c0,5.752-4.663,10.416-10.416,10.416c-33.631,0-128.258,0-163.334,0c-5.522,0-10,4.478-10,10     S291.311,184.333,296.833,184.333z"/><path style="fill:#283954;" d="M296.833,225.167h71.459c17.001,0,30.833,13.832,30.833,30.833     c0,17.03-13.801,30.833-30.833,30.833h-20.509c-5.522,0-10,4.478-10,10s4.478,10,10,10h20.509     c28.083,0,50.833-22.747,50.833-50.833c0-28.029-22.804-50.833-50.833-50.833h-71.459c-5.522,0-10,4.478-10,10     S291.311,225.167,296.833,225.167z"/></g><g><path style="fill:#5596FB;" d="M291.286,243.903c1.674,1.116,3.607,1.68,5.548,1.68c5.518,0,9.999-4.481,9.999-10V135.542     c0-17.897-14.561-32.459-32.458-32.459h-77.583c-17.897,0-32.459,14.562-32.459,32.459v100.041c0,3.688,2.03,7.076,5.281,8.816     c3.253,1.742,7.198,1.549,10.266-0.496l55.703-37.135L291.286,243.903z M184.333,216.897v-81.355     c0-6.87,5.589-12.459,12.459-12.459h77.583c6.869,0,12.458,5.589,12.458,12.459v81.355L241.13,186.43     c-3.357-2.239-7.734-2.24-11.094,0L184.333,216.897z"/><path style="fill:#5596FB;" d="M325.417,266.417h-77.584c-17.897,0-32.458,14.561-32.458,32.458v100.042     c0,3.688,2.03,7.076,5.281,8.816c3.253,1.742,7.198,1.549,10.266-0.496l55.703-37.136l55.703,37.136     c3.069,2.048,7.019,2.235,10.266,0.496c3.251-1.74,5.281-5.129,5.281-8.816V298.875     C357.875,280.978,343.314,266.417,325.417,266.417z M337.875,380.231l-45.703-30.469c-3.357-2.239-7.734-2.24-11.094,0     l-45.703,30.469v-81.356c0-6.869,5.589-12.458,12.458-12.458h77.584c6.869,0,12.458,5.589,12.458,12.458V380.231z"/></g></g></g><g id="Layer_1"/></svg>